<svg xmlns="http://www.w3.org/2000/svg" width="256" height="256" viewBox="0 0 256 256" role="img" aria-labelledby="title desc">
  <title id="title">Shaxmatchi Logo</title>
  <desc id="desc">Minimal chess knight in a rounded shield with Uzbek blue accent</desc>
  <defs>
    <linearGradient id="g" x1="0" x2="1" y1="0" y2="1">
      <stop offset="0%" stop-color="#1e3a8a"/>
      <stop offset="100%" stop-color="#3b82f6"/>
    </linearGradient>
    <linearGradient id="gloss" x1="0" y1="0" x2="0" y2="1">
      <stop offset="0%" stop-color="#ffffff" stop-opacity="0.35"/>
      <stop offset="100%" stop-color="#ffffff" stop-opacity="0"/>
    </linearGradient>
    <filter id="shadow" x="-20%" y="-20%" width="140%" height="140%">
      <feDropShadow dx="0" dy="6" stdDeviation="6" flood-color="#0f172a" flood-opacity="0.25"/>
    </filter>
  </defs>

  <!-- Shield -->
  <g filter="url(#shadow)">
    <rect x="16" y="16" width="224" height="224" rx="56" fill="url(#g)"/>
    <rect x="16" y="16" width="224" height="224" rx="56" fill="url(#gloss)"/>
  </g>

  <!-- Knight silhouette -->
  <g transform="translate(28,28)">
    <path d="M78 156c-8-2-18-10-18-22 0-11 8-18 14-22-10-9-16-22-6-38 8-13 25-20 42-20 8 0 18 3 24 6 3 1 6 0 8-2l10-10 8 8-8 10c-2 3-3 6-2 9 5 12 8 26 8 40 0 32-22 52-58 52-8 0-16-1-22-3zm18-88c-8 0-14 6-14 14 0 7 5 12 10 13l10 3c7 2 12 8 12 16 0 3-1 6-3 9l-7 9h12c16 0 26-10 26-26 0-22-20-38-46-38z" fill="#ffffff"/>
    <!-- Base -->
    <rect x="40" y="164" width="120" height="12" rx="6" fill="#e2e8f0"/>
  </g>

  <!-- Subtle grid hint for chess -->
  <g opacity="0.08">
    <path d="M16 72h224M16 128h224M16 184h224M72 16v224M128 16v224M184 16v224" stroke="#000" stroke-width="4"/>
  </g>
</svg>
